<svg xmlns="http://www.w3.org/2000/svg" version="1.0" preserveAspectRatio="xMidYMid meet" viewBox="446.93 700 905.9 423.46">

<g transform="translate(0.000000,2048.000000) scale(0.100000,-0.100000)" fill="#000000" stroke="none">
<path d="M6105 13468 c-11 -6 -23 -16 -27 -22 -15 -22 -7 -78 18 -129 72 -141 181 -269 392 -455 244 -216 307 -269 482 -402 90 -69 177 -137 194 -151 l30 -27 -79 -7 c-467 -40 -1001 -203 -1600 -489 -197 -95 -416 -232 -576 -363 -90 -73 -265 -254 -322 -335 -56 -78 -111 -191 -132 -273 -21 -81 -21 -290 0 -381 65 -280 384 -582 806 -763 138 -59 455 -166 654 -220 271 -75 700 -156 985 -187 199 -22 748 -25 890 -6 139 20 363 68 455 98 97 31 266 110 332 155 121 83 275 261 348 402 23 45 44 89 47 97 6 16 -4 24 170 -124 259 -221 573 -378 1003 -501 225 -65 412 -89 775 -101 214 -7 338 7 476 55 118 40 187 84 280 177 90 90 144 182 165 281 17 84 6 335 -20 438 -56 228 -167 436 -358 675 -114 143 -404 431 -683 678 -146 130 -306 277 -355 326 -50 50 -142 138 -205 196 -63 58 -115 109 -115 115 0 24 595 348 611 332 3 -3 1 -29 -5 -57 -38 -179 17 -349 159 -490 176 -175 410 -252 760 -252 278 0 507 46 929 188 312 104 506 199 699 343 140 105 193 168 227 270 22 66 16 152 -14 215 -45 93 -204 225 -377 313 -306 157 -798 282 -1344 343 -279 31 -441 36 -518 16 -118 -30 -182 -98 -182 -195 0 -54 8 -63 27 -32 12 19 47 24 269 37 150 9 156 -2 32 -63 -143 -71 -235 -134 -371 -251 -98 -85 -126 -103 -184 -122 -142 -47 -380 -157 -557 -257 -87 -50 -81 -50 -118 16 -19 35 -94 86 -148 101 -19 6 -60 13 -90 16 -155 17 -260 -88 -248 -249 3 -34 7 -69 9 -77 3 -12 -5 -14 -41 -12 -39 2 -50 9 -81 45 -34 39 -40 42 -89 42 -46 0 -55 -4 -81 -33 -16 -18 -29 -41 -29 -51 0 -59 -31 -67 -62 -16 -26 45 -70 69 -113 61 -36 -7 -54 -24 -79 -74 -22 -42 -48 -39 -57 7 -18 88 -117 116 -182 53 l-34 -33 -12 47 c-17 68 -37 102 -71 119 -46 24 -78 19 -116 -19 -32 -32 -34 -39 -34 -98 0 -35 4 -79 10 -97 5 -19 7 -37 4 -40 -13 -12 -131 130 -171 205 -63 121 -223 546 -223 594 0 13 -9 62 -21 111 -23 99 -52 139 -100 139 -46 0 -78 -37 -90 -104 -11 -64 -7 -105 22 -213 13 -48 17 -84 13 -113 -7 -45 -83 -168 -129 -210 -33 -31 -65 -91 -65 -123 0 -36 34 -73 100 -108 33 -18 79 -52 101 -76 36 -39 40 -49 35 -76 -4 -18 -12 -38 -20 -45 -11 -11 -18 -6 -39 31 -40 68 -127 88 -207 47 -30 -15 -68 -21 -179 -26 l-141 -7 -292 220 c-161 122 -336 258 -389 304 -54 46 -173 150 -265 230 -182 157 -247 223 -331 337 -47 63 -83 93 -111 92 -4 0 -16 -6 -27 -12z m6010 -318 l27 -10 -7 -80 c-5 -54 -4 -80 3 -80 18 0 108 96 122 130 13 31 15 32 58 26 140 -19 458 -114 627 -188 168 -73 335 -191 368 -260 37 -77 -26 -160 -218 -286 -163 -108 -324 -183 -575 -266 -384 -128 -619 -176 -862 -176 -354 0 -596 104 -694 298 -24 47 -29 69 -29 132 0 67 4 84 39 157 21 45 51 93 65 107 20 20 89 45 272 102 298 93 363 111 446 120 36 3 61 10 56 14 -10 9 -233 30 -333 31 -41 1 -86 4 -99 8 l-24 7 24 15 c65 43 308 153 419 190 62 20 269 26 315 9z m-3910 -589 c26 -66 66 -154 90 -196 91 -159 223 -290 318 -316 61 -16 130 -7 169 23 46 35 145 46 296 32 59 -5 81 -3 112 11 35 16 44 16 87 4 26 -8 80 -14 118 -14 58 0 78 5 117 28 47 27 91 34 118 17 12 -7 9 -13 -15 -32 -192 -149 -578 -526 -674 -657 -78 -106 -135 -203 -174 -297 -17 -41 -34 -74 -39 -74 -4 0 -12 9 -18 20 -21 39 -207 266 -312 380 -58 63 -199 203 -313 310 l-207 195 63 12 c81 17 130 41 203 100 77 62 96 99 96 184 0 56 -4 72 -27 106 -26 38 -84 92 -149 139 l-28 21 54 61 c30 34 58 62 62 62 3 0 27 -54 53 -119z m1785 -88 c13 -13 12 -17 -13 -39 -38 -32 -62 -31 -77 6 -10 23 -10 33 0 45 14 17 67 10 90 -12z m-2250 -198 c0 -2 -9 -19 -20 -37 -11 -18 -20 -41 -20 -50 0 -29 -22 -21 -75 26 l-50 44 50 7 c28 3 55 8 60 10 16 5 55 6 55 0z m228 -57 c20 -20 14 -35 -19 -47 -46 -16 -99 -14 -99 3 0 18 58 56 86 56 11 0 25 -5 32 -12z m-551 -100 c293 -230 752 -664 954 -903 105 -125 229 -293 278 -380 36 -63 43 -85 52 -165 12 -108 47 -236 92 -335 27 -59 32 -80 30 -139 -3 -96 -28 -167 -94 -266 -151 -225 -319 -333 -644 -415 -235 -59 -335 -70 -670 -69 -310 0 -471 11 -685 45 -185 29 -465 85 -630 125 -172 42 -606 185 -739 242 -196 85 -373 205 -506 344 -148 152 -185 238 -185 423 0 193 51 299 236 494 263 277 655 510 1234 736 301 117 1044 342 1139 344 27 1 52 -14 138 -81z m2659 -124 c66 -59 182 -169 259 -244 77 -75 201 -190 275 -255 737 -644 1006 -1002 1061 -1411 17 -127 9 -248 -20 -308 -34 -68 -130 -167 -198 -203 -145 -77 -298 -99 -581 -83 -354 19 -479 39 -714 111 -408 125 -679 274 -953 523 -44 40 -100 98 -123 129 -40 51 -44 62 -58 158 -19 130 -46 231 -90 330 -38 87 -40 105 -19 216 32 173 175 394 394 613 229 228 591 530 636 530 7 0 66 -48 131 -106z"/>
</g>
</svg>